{
	"asset":{
		"generator":"Khronos glTF Blender I/O v5.0.21",
		"version":"2.0"
	},
	"scene":0,
	"scenes":[
		{
			"name":"Scene",
			"nodes":[
				0,
				1,
				2,
				3,
				4,
				5,
				6,
				7,
				8,
				9,
				10,
				11
			]
		}
	],
	"nodes":[
		{
			"mesh":0,
			"name":"Ground"
		},
		{
			"mesh":1,
			"name":"Road"
		},
		{
			"mesh":2,
			"name":"Rock_Cliff"
		},
		{
			"mesh":3,
			"name":"Mesh_Tree_Group"
		},
		{
			"mesh":4,
			"name":"Mesh_Tree_Group2"
		},
		{
			"mesh":5,
			"name":"Rock_Cliff.001"
		},
		{
			"mesh":6,
			"name":"Mesh_Tree_Group.001"
		},
		{
			"mesh":7,
			"name":"Mesh_Tree_Group.002"
		},
		{
			"mesh":8,
			"name":"Mesh_Tree_Group.003"
		},
		{
			"mesh":9,
			"name":"Mesh_Tree_Group.004"
		},
		{
			"mesh":10,
			"name":"Rock_Cliff.002"
		},
		{
			"mesh":11,
			"name":"Mesh_Tree_Group2.001"
		}
	],
	"materials":[
		{
			"doubleSided":true,
			"name":"Material.007",
			"pbrMetallicRoughness":{
				"baseColorTexture":{
					"index":0
				},
				"metallicFactor":0
			}
		},
		{
			"doubleSided":true,
			"name":"Material.003",
			"pbrMetallicRoughness":{
				"baseColorTexture":{
					"index":1
				}
			}
		},
		{
			"doubleSided":true,
			"name":"Material.004",
			"pbrMetallicRoughness":{
				"baseColorTexture":{
					"index":2
				},
				"metallicFactor":0
			}
		},
		{
			"alphaMode":"BLEND",
			"doubleSided":true,
			"name":"Material.001",
			"pbrMetallicRoughness":{
				"baseColorTexture":{
					"index":3
				},
				"metallicFactor":0
			}
		},
		{
			"alphaMode":"BLEND",
			"doubleSided":true,
			"name":"Material.012",
			"pbrMetallicRoughness":{
				"baseColorTexture":{
					"index":4
				},
				"metallicFactor":0
			}
		}
	],
	"meshes":[
		{
			"name":"Plane",
			"primitives":[
				{
					"attributes":{
						"POSITION":0,
						"NORMAL":1,
						"TEXCOORD_0":2
					},
					"indices":3,
					"material":0
				}
			]
		},
		{
			"name":"Cube.004",
			"primitives":[
				{
					"attributes":{
						"POSITION":4,
						"NORMAL":5,
						"TEXCOORD_0":6
					},
					"indices":7,
					"material":1
				}
			]
		},
		{
			"name":"Plane.006",
			"primitives":[
				{
					"attributes":{
						"POSITION":8,
						"NORMAL":9,
						"TEXCOORD_0":10
					},
					"indices":11,
					"material":2
				}
			]
		},
		{
			"name":"Plane.011",
			"primitives":[
				{
					"attributes":{
						"POSITION":12,
						"NORMAL":13,
						"TEXCOORD_0":14
					},
					"indices":15,
					"material":3
				}
			]
		},
		{
			"name":"Plane.013",
			"primitives":[
				{
					"attributes":{
						"POSITION":16,
						"NORMAL":17,
						"TEXCOORD_0":18
					},
					"indices":19,
					"material":4
				}
			]
		},
		{
			"name":"Plane.019",
			"primitives":[
				{
					"attributes":{
						"POSITION":20,
						"NORMAL":21,
						"TEXCOORD_0":22
					},
					"indices":23,
					"material":2
				}
			]
		},
		{
			"name":"Plane.001",
			"primitives":[
				{
					"attributes":{
						"POSITION":24,
						"NORMAL":25,
						"TEXCOORD_0":26
					},
					"indices":27,
					"material":3
				}
			]
		},
		{
			"name":"Plane.002",
			"primitives":[
				{
					"attributes":{
						"POSITION":28,
						"NORMAL":29,
						"TEXCOORD_0":30
					},
					"indices":31,
					"material":3
				}
			]
		},
		{
			"name":"Plane.003",
			"primitives":[
				{
					"attributes":{
						"POSITION":32,
						"NORMAL":33,
						"TEXCOORD_0":34
					},
					"indices":35,
					"material":3
				}
			]
		},
		{
			"name":"Plane.004",
			"primitives":[
				{
					"attributes":{
						"POSITION":36,
						"NORMAL":37,
						"TEXCOORD_0":38
					},
					"indices":39,
					"material":3
				}
			]
		},
		{
			"name":"Plane.005",
			"primitives":[
				{
					"attributes":{
						"POSITION":40,
						"NORMAL":41,
						"TEXCOORD_0":42
					},
					"indices":43,
					"material":2
				}
			]
		},
		{
			"name":"Plane.007",
			"primitives":[
				{
					"attributes":{
						"POSITION":44,
						"NORMAL":45,
						"TEXCOORD_0":46
					},
					"indices":47,
					"material":4
				}
			]
		}
	],
	"textures":[
		{
			"sampler":0,
			"source":0
		},
		{
			"sampler":0,
			"source":1
		},
		{
			"sampler":0,
			"source":2
		},
		{
			"sampler":0,
			"source":3
		},
		{
			"sampler":0,
			"source":4
		}
	],
	"images":[
		{
			"mimeType":"image/jpeg",
			"name":"images (1)",
			"uri":"images%20%281%29.jpg"
		},
		{
			"mimeType":"image/png",
			"name":"concretegeneric",
			"uri":"concretegeneric.png"
		},
		{
			"mimeType":"image/jpeg",
			"name":"stone+mountain+rock",
			"uri":"stone%2Bmountain%2Brock.jpg"
		},
		{
			"mimeType":"image/png",
			"name":"treetests",
			"uri":"treetests.png"
		},
		{
			"mimeType":"image/png",
			"name":"treetest2",
			"uri":"treetest2.png"
		}
	],
	"accessors":[
		{
			"bufferView":0,
			"componentType":5126,
			"count":1089,
			"max":[
				518.141845703125,
				829.2183227539062,
				-0.5097229480743408
			],
			"min":[
				-1107.900146484375,
				-796.8236694335938,
				-46.005592346191406
			],
			"type":"VEC3"
		},
		{
			"bufferView":1,
			"componentType":5126,
			"count":1089,
			"type":"VEC3"
		},
		{
			"bufferView":2,
			"componentType":5126,
			"count":1089,
			"type":"VEC2"
		},
		{
			"bufferView":3,
			"componentType":5123,
			"count":6144,
			"type":"SCALAR"
		},
		{
			"bufferView":4,
			"componentType":5126,
			"count":578,
			"max":[
				425.5819396972656,
				790.34033203125,
				4.499199867248535
			],
			"min":[
				-470.0602722167969,
				-719.5305786132812,
				-6.632242202758789
			],
			"type":"VEC3"
		},
		{
			"bufferView":5,
			"componentType":5126,
			"count":578,
			"type":"VEC3"
		},
		{
			"bufferView":6,
			"componentType":5126,
			"count":578,
			"type":"VEC2"
		},
		{
			"bufferView":7,
			"componentType":5123,
			"count":1140,
			"type":"SCALAR"
		},
		{
			"bufferView":8,
			"componentType":5126,
			"count":2560,
			"max":[
				-468.75250244140625,
				806.105224609375,
				29.69382667541504
			],
			"min":[
				-754.3670654296875,
				355.8298034667969,
				-49.719932556152344
			],
			"type":"VEC3"
		},
		{
			"bufferView":9,
			"componentType":5126,
			"count":2560,
			"type":"VEC3"
		},
		{
			"bufferView":10,
			"componentType":5126,
			"count":2560,
			"type":"VEC2"
		},
		{
			"bufferView":11,
			"componentType":5123,
			"count":3840,
			"type":"SCALAR"
		},
		{
			"bufferView":12,
			"componentType":5126,
			"count":68,
			"max":[
				-594.4818115234375,
				716.5805053710938,
				40.12431716918945
			],
			"min":[
				-685.1248779296875,
				489.26788330078125,
				3.3998584747314453
			],
			"type":"VEC3"
		},
		{
			"bufferView":13,
			"componentType":5126,
			"count":68,
			"type":"VEC3"
		},
		{
			"bufferView":14,
			"componentType":5126,
			"count":68,
			"type":"VEC2"
		},
		{
			"bufferView":15,
			"componentType":5123,
			"count":108,
			"type":"SCALAR"
		},
		{
			"bufferView":16,
			"componentType":5126,
			"count":24,
			"max":[
				20.9471435546875,
				-466.1515808105469,
				54.70668411254883
			],
			"min":[
				-550.6094970703125,
				-754.5608520507812,
				-4.317829132080078
			],
			"type":"VEC3"
		},
		{
			"bufferView":17,
			"componentType":5126,
			"count":24,
			"type":"VEC3"
		},
		{
			"bufferView":18,
			"componentType":5126,
			"count":24,
			"type":"VEC2"
		},
		{
			"bufferView":19,
			"componentType":5123,
			"count":36,
			"type":"SCALAR"
		},
		{
			"bufferView":20,
			"componentType":5126,
			"count":2048,
			"max":[
				517.8702392578125,
				-317.6270446777344,
				81.95574951171875
			],
			"min":[
				39.556060791015625,
				-762.114013671875,
				-49.719932556152344
			],
			"type":"VEC3"
		},
		{
			"bufferView":21,
			"componentType":5126,
			"count":2048,
			"type":"VEC3"
		},
		{
			"bufferView":22,
			"componentType":5126,
			"count":2048,
			"type":"VEC2"
		},
		{
			"bufferView":23,
			"componentType":5123,
			"count":3072,
			"type":"SCALAR"
		},
		{
			"bufferView":24,
			"componentType":5126,
			"count":25,
			"max":[
				-603.9385375976562,
				596.6370849609375,
				28.898841857910156
			],
			"min":[
				-652.8231811523438,
				494.18701171875,
				1.4219245910644531
			],
			"type":"VEC3"
		},
		{
			"bufferView":25,
			"componentType":5126,
			"count":25,
			"type":"VEC3"
		},
		{
			"bufferView":26,
			"componentType":5126,
			"count":25,
			"type":"VEC2"
		},
		{
			"bufferView":27,
			"componentType":5123,
			"count":36,
			"type":"SCALAR"
		},
		{
			"bufferView":28,
			"componentType":5126,
			"count":21,
			"max":[
				-538.7529907226562,
				493.7218017578125,
				26.37783432006836
			],
			"min":[
				-596.4140014648438,
				408.99102783203125,
				1.4219245910644531
			],
			"type":"VEC3"
		},
		{
			"bufferView":29,
			"componentType":5126,
			"count":21,
			"type":"VEC3"
		},
		{
			"bufferView":30,
			"componentType":5126,
			"count":21,
			"type":"VEC2"
		},
		{
			"bufferView":31,
			"componentType":5123,
			"count":36,
			"type":"SCALAR"
		},
		{
			"bufferView":32,
			"componentType":5126,
			"count":18,
			"max":[
				-569.4229125976562,
				492.93280029296875,
				26.37783432006836
			],
			"min":[
				-627.0839233398438,
				408.2020263671875,
				1.4219245910644531
			],
			"type":"VEC3"
		},
		{
			"bufferView":33,
			"componentType":5126,
			"count":18,
			"type":"VEC3"
		},
		{
			"bufferView":34,
			"componentType":5126,
			"count":18,
			"type":"VEC2"
		},
		{
			"bufferView":35,
			"componentType":5123,
			"count":36,
			"type":"SCALAR"
		},
		{
			"bufferView":36,
			"componentType":5126,
			"count":21,
			"max":[
				-658.5427856445312,
				526.4146118164062,
				26.37783432006836
			],
			"min":[
				-718.4036865234375,
				444.0312194824219,
				1.4219245910644531
			],
			"type":"VEC3"
		},
		{
			"bufferView":37,
			"componentType":5126,
			"count":21,
			"type":"VEC3"
		},
		{
			"bufferView":38,
			"componentType":5126,
			"count":21,
			"type":"VEC2"
		},
		{
			"bufferView":39,
			"componentType":5123,
			"count":36,
			"type":"SCALAR"
		},
		{
			"bufferView":40,
			"componentType":5126,
			"count":2304,
			"max":[
				-289.2601318359375,
				735.5367431640625,
				87.00120544433594
			],
			"min":[
				-1104.9105224609375,
				-571.9008178710938,
				-52.79554748535156
			],
			"type":"VEC3"
		},
		{
			"bufferView":41,
			"componentType":5126,
			"count":2304,
			"type":"VEC3"
		},
		{
			"bufferView":42,
			"componentType":5126,
			"count":2304,
			"type":"VEC2"
		},
		{
			"bufferView":43,
			"componentType":5123,
			"count":3456,
			"type":"SCALAR"
		},
		{
			"bufferView":44,
			"componentType":5126,
			"count":44,
			"max":[
				-621.1398315429688,
				314.6339416503906,
				54.70668411254883
			],
			"min":[
				-964.76220703125,
				-439.3367004394531,
				-4.317829132080078
			],
			"type":"VEC3"
		},
		{
			"bufferView":45,
			"componentType":5126,
			"count":44,
			"type":"VEC3"
		},
		{
			"bufferView":46,
			"componentType":5126,
			"count":44,
			"type":"VEC2"
		},
		{
			"bufferView":47,
			"componentType":5123,
			"count":66,
			"type":"SCALAR"
		}
	],
	"bufferViews":[
		{
			"buffer":0,
			"byteLength":13068,
			"byteOffset":0,
			"target":34962
		},
		{
			"buffer":0,
			"byteLength":13068,
			"byteOffset":13068,
			"target":34962
		},
		{
			"buffer":0,
			"byteLength":8712,
			"byteOffset":26136,
			"target":34962
		},
		{
			"buffer":0,
			"byteLength":12288,
			"byteOffset":34848,
			"target":34963
		},
		{
			"buffer":0,
			"byteLength":6936,
			"byteOffset":47136,
			"target":34962
		},
		{
			"buffer":0,
			"byteLength":6936,
			"byteOffset":54072,
			"target":34962
		},
		{
			"buffer":0,
			"byteLength":4624,
			"byteOffset":61008,
			"target":34962
		},
		{
			"buffer":0,
			"byteLength":2280,
			"byteOffset":65632,
			"target":34963
		},
		{
			"buffer":0,
			"byteLength":30720,
			"byteOffset":67912,
			"target":34962
		},
		{
			"buffer":0,
			"byteLength":30720,
			"byteOffset":98632,
			"target":34962
		},
		{
			"buffer":0,
			"byteLength":20480,
			"byteOffset":129352,
			"target":34962
		},
		{
			"buffer":0,
			"byteLength":7680,
			"byteOffset":149832,
			"target":34963
		},
		{
			"buffer":0,
			"byteLength":816,
			"byteOffset":157512,
			"target":34962
		},
		{
			"buffer":0,
			"byteLength":816,
			"byteOffset":158328,
			"target":34962
		},
		{
			"buffer":0,
			"byteLength":544,
			"byteOffset":159144,
			"target":34962
		},
		{
			"buffer":0,
			"byteLength":216,
			"byteOffset":159688,
			"target":34963
		},
		{
			"buffer":0,
			"byteLength":288,
			"byteOffset":159904,
			"target":34962
		},
		{
			"buffer":0,
			"byteLength":288,
			"byteOffset":160192,
			"target":34962
		},
		{
			"buffer":0,
			"byteLength":192,
			"byteOffset":160480,
			"target":34962
		},
		{
			"buffer":0,
			"byteLength":72,
			"byteOffset":160672,
			"target":34963
		},
		{
			"buffer":0,
			"byteLength":24576,
			"byteOffset":160744,
			"target":34962
		},
		{
			"buffer":0,
			"byteLength":24576,
			"byteOffset":185320,
			"target":34962
		},
		{
			"buffer":0,
			"byteLength":16384,
			"byteOffset":209896,
			"target":34962
		},
		{
			"buffer":0,
			"byteLength":6144,
			"byteOffset":226280,
			"target":34963
		},
		{
			"buffer":0,
			"byteLength":300,
			"byteOffset":232424,
			"target":34962
		},
		{
			"buffer":0,
			"byteLength":300,
			"byteOffset":232724,
			"target":34962
		},
		{
			"buffer":0,
			"byteLength":200,
			"byteOffset":233024,
			"target":34962
		},
		{
			"buffer":0,
			"byteLength":72,
			"byteOffset":233224,
			"target":34963
		},
		{
			"buffer":0,
			"byteLength":252,
			"byteOffset":233296,
			"target":34962
		},
		{
			"buffer":0,
			"byteLength":252,
			"byteOffset":233548,
			"target":34962
		},
		{
			"buffer":0,
			"byteLength":168,
			"byteOffset":233800,
			"target":34962
		},
		{
			"buffer":0,
			"byteLength":72,
			"byteOffset":233968,
			"target":34963
		},
		{
			"buffer":0,
			"byteLength":216,
			"byteOffset":234040,
			"target":34962
		},
		{
			"buffer":0,
			"byteLength":216,
			"byteOffset":234256,
			"target":34962
		},
		{
			"buffer":0,
			"byteLength":144,
			"byteOffset":234472,
			"target":34962
		},
		{
			"buffer":0,
			"byteLength":72,
			"byteOffset":234616,
			"target":34963
		},
		{
			"buffer":0,
			"byteLength":252,
			"byteOffset":234688,
			"target":34962
		},
		{
			"buffer":0,
			"byteLength":252,
			"byteOffset":234940,
			"target":34962
		},
		{
			"buffer":0,
			"byteLength":168,
			"byteOffset":235192,
			"target":34962
		},
		{
			"buffer":0,
			"byteLength":72,
			"byteOffset":235360,
			"target":34963
		},
		{
			"buffer":0,
			"byteLength":27648,
			"byteOffset":235432,
			"target":34962
		},
		{
			"buffer":0,
			"byteLength":27648,
			"byteOffset":263080,
			"target":34962
		},
		{
			"buffer":0,
			"byteLength":18432,
			"byteOffset":290728,
			"target":34962
		},
		{
			"buffer":0,
			"byteLength":6912,
			"byteOffset":309160,
			"target":34963
		},
		{
			"buffer":0,
			"byteLength":528,
			"byteOffset":316072,
			"target":34962
		},
		{
			"buffer":0,
			"byteLength":528,
			"byteOffset":316600,
			"target":34962
		},
		{
			"buffer":0,
			"byteLength":352,
			"byteOffset":317128,
			"target":34962
		},
		{
			"buffer":0,
			"byteLength":132,
			"byteOffset":317480,
			"target":34963
		}
	],
	"samplers":[
		{
			"magFilter":9729,
			"minFilter":9987
		}
	],
	"buffers":[
		{
			"byteLength":317612,
			"uri":"updatedworld.bin"
		}
	]
}
