{
	"asset":{
		"generator":"Khronos glTF Blender I/O v5.0.21",
		"version":"2.0"
	},
	"extensionsUsed":[
		"KHR_materials_emissive_strength"
	],
	"scene":0,
	"scenes":[
		{
			"name":"Scene",
			"nodes":[
				0
			]
		}
	],
	"nodes":[
		{
			"mesh":0,
			"name":"Crescenduck",
			"scale":[
				1.9416321516036987,
				1.3690953254699707,
				0.7186235785484314
			],
			"translation":[
				0.2563624978065491,
				0.9036754965782166,
				6.5635600090026855
			]
		}
	],
	"materials":[
		{
			"doubleSided":true,
			"name":"Material.008",
			"pbrMetallicRoughness":{
				"baseColorFactor":[
					0.21402759850025177,
					0.12916597723960876,
					0,
					1
				]
			}
		},
		{
			"doubleSided":true,
			"name":"Material.004",
			"pbrMetallicRoughness":{
				"baseColorFactor":[
					0,
					0,
					0,
					1
				],
				"roughnessFactor":0
			}
		},
		{
			"doubleSided":true,
			"name":"Material.003",
			"pbrMetallicRoughness":{
				"baseColorFactor":[
					1,
					0.24574045836925507,
					0,
					1
				],
				"metallicFactor":0
			}
		},
		{
			"doubleSided":true,
			"name":"Material.002",
			"pbrMetallicRoughness":{
				"baseColorFactor":[
					0,
					0,
					0,
					1
				],
				"metallicFactor":0
			}
		},
		{
			"doubleSided":true,
			"name":"Material.001",
			"pbrMetallicRoughness":{
				"baseColorFactor":[
					0.8000074625015259,
					0.6010868549346924,
					0,
					1
				],
				"metallicFactor":0,
				"roughnessFactor":0.5
			}
		},
		{
			"doubleSided":true,
			"name":"Material.006",
			"pbrMetallicRoughness":{
				"baseColorFactor":[
					1,
					0.7379195690155029,
					0,
					1
				],
				"roughnessFactor":0.4261234998703003
			}
		},
		{
			"doubleSided":true,
			"name":"Material.009",
			"pbrMetallicRoughness":{
				"baseColorFactor":[
					0.8000074625015259,
					0.15231525897979736,
					0,
					1
				],
				"metallicFactor":0,
				"roughnessFactor":0.5
			}
		},
		{
			"doubleSided":true,
			"emissiveFactor":[
				1,
				0.08022928237915039,
				0
			],
			"extensions":{
				"KHR_materials_emissive_strength":{
					"emissiveStrength":3.799999713897705
				}
			},
			"name":"Material.010",
			"pbrMetallicRoughness":{
				"baseColorFactor":[
					0,
					0,
					0,
					1
				]
			}
		}
	],
	"meshes":[
		{
			"name":"Sphere.005",
			"primitives":[
				{
					"attributes":{
						"POSITION":0,
						"NORMAL":1,
						"TEXCOORD_0":2
					},
					"indices":3,
					"material":0
				},
				{
					"attributes":{
						"POSITION":4,
						"NORMAL":5,
						"TEXCOORD_0":6
					},
					"indices":7,
					"material":1
				},
				{
					"attributes":{
						"POSITION":8,
						"NORMAL":9,
						"TEXCOORD_0":10
					},
					"indices":11,
					"material":2
				},
				{
					"attributes":{
						"POSITION":12,
						"NORMAL":13,
						"TEXCOORD_0":14
					},
					"indices":15,
					"material":3
				},
				{
					"attributes":{
						"POSITION":16,
						"NORMAL":17,
						"TEXCOORD_0":18
					},
					"indices":19,
					"material":4
				},
				{
					"attributes":{
						"POSITION":20,
						"NORMAL":21,
						"TEXCOORD_0":22
					},
					"indices":23,
					"material":5
				},
				{
					"attributes":{
						"POSITION":24,
						"NORMAL":25,
						"TEXCOORD_0":26
					},
					"indices":27
				},
				{
					"attributes":{
						"POSITION":28,
						"NORMAL":29,
						"TEXCOORD_0":30
					},
					"indices":31,
					"material":6
				},
				{
					"attributes":{
						"POSITION":32,
						"NORMAL":33,
						"TEXCOORD_0":34
					},
					"indices":35,
					"material":7
				}
			]
		}
	],
	"accessors":[
		{
			"bufferView":0,
			"componentType":5126,
			"count":574,
			"max":[
				1.418197512626648,
				0.6175523996353149,
				1.354682207107544
			],
			"min":[
				-1.2224024534225464,
				-2.0230484008789062,
				-4.094150543212891
			],
			"type":"VEC3"
		},
		{
			"bufferView":1,
			"componentType":5126,
			"count":574,
			"type":"VEC3"
		},
		{
			"bufferView":2,
			"componentType":5126,
			"count":574,
			"type":"VEC2"
		},
		{
			"bufferView":3,
			"componentType":5123,
			"count":2880,
			"type":"SCALAR"
		},
		{
			"bufferView":4,
			"componentType":5126,
			"count":1118,
			"max":[
				0.2878686785697937,
				-0.204090416431427,
				-3.994565486907959
			],
			"min":[
				0.08704765886068344,
				-1.114985466003418,
				-4.537159442901611
			],
			"type":"VEC3"
		},
		{
			"bufferView":5,
			"componentType":5126,
			"count":1118,
			"type":"VEC3"
		},
		{
			"bufferView":6,
			"componentType":5126,
			"count":1118,
			"type":"VEC2"
		},
		{
			"bufferView":7,
			"componentType":5123,
			"count":5760,
			"type":"SCALAR"
		},
		{
			"bufferView":8,
			"componentType":5126,
			"count":213,
			"max":[
				0.5837476253509521,
				-0.4272615909576416,
				-4.462279796600342
			],
			"min":[
				0.13820448517799377,
				-0.9121012091636658,
				-4.963718414306641
			],
			"type":"VEC3"
		},
		{
			"bufferView":9,
			"componentType":5126,
			"count":213,
			"type":"VEC3"
		},
		{
			"bufferView":10,
			"componentType":5126,
			"count":213,
			"type":"VEC2"
		},
		{
			"bufferView":11,
			"componentType":5123,
			"count":714,
			"type":"SCALAR"
		},
		{
			"bufferView":12,
			"componentType":5126,
			"count":121,
			"max":[
				0.5972239971160889,
				1.6473599672317505,
				-4.6503190994262695
			],
			"min":[
				-0.5711635947227478,
				-2.8835933208465576,
				-15.975152015686035
			],
			"type":"VEC3"
		},
		{
			"bufferView":13,
			"componentType":5126,
			"count":121,
			"type":"VEC3"
		},
		{
			"bufferView":14,
			"componentType":5126,
			"count":121,
			"type":"VEC2"
		},
		{
			"bufferView":15,
			"componentType":5123,
			"count":324,
			"type":"SCALAR"
		},
		{
			"bufferView":16,
			"componentType":5126,
			"count":3446,
			"max":[
				0.5704327821731567,
				2.7151803970336914,
				1.3476972579956055
			],
			"min":[
				-2.436492681503296,
				-4.2238593101501465,
				-15.26541519165039
			],
			"type":"VEC3"
		},
		{
			"bufferView":17,
			"componentType":5126,
			"count":3446,
			"type":"VEC3"
		},
		{
			"bufferView":18,
			"componentType":5126,
			"count":3446,
			"type":"VEC2"
		},
		{
			"bufferView":19,
			"componentType":5123,
			"count":18876,
			"type":"SCALAR"
		},
		{
			"bufferView":20,
			"componentType":5126,
			"count":10846,
			"max":[
				0.6432467699050903,
				0.39381808042526245,
				-7.580207824707031
			],
			"min":[
				-0.849496603012085,
				-1.6220721006393433,
				-9.345009803771973
			],
			"type":"VEC3"
		},
		{
			"bufferView":21,
			"componentType":5126,
			"count":10846,
			"type":"VEC3"
		},
		{
			"bufferView":22,
			"componentType":5126,
			"count":10846,
			"type":"VEC2"
		},
		{
			"bufferView":23,
			"componentType":5123,
			"count":34044,
			"type":"SCALAR"
		},
		{
			"bufferView":24,
			"componentType":5126,
			"count":98,
			"max":[
				0.57851243019104,
				-0.24145948886871338,
				-4.542937278747559
			],
			"min":[
				0.37217462062835693,
				-0.5256638526916504,
				-4.777036666870117
			],
			"type":"VEC3"
		},
		{
			"bufferView":25,
			"componentType":5126,
			"count":98,
			"type":"VEC3"
		},
		{
			"bufferView":26,
			"componentType":5126,
			"count":98,
			"type":"VEC2"
		},
		{
			"bufferView":27,
			"componentType":5123,
			"count":282,
			"type":"SCALAR"
		},
		{
			"bufferView":28,
			"componentType":5126,
			"count":66,
			"max":[
				0.4474303424358368,
				-0.4208521544933319,
				-4.658196449279785
			],
			"min":[
				0.37217462062835693,
				-0.5256638526916504,
				-4.777036666870117
			],
			"type":"VEC3"
		},
		{
			"bufferView":29,
			"componentType":5126,
			"count":66,
			"type":"VEC3"
		},
		{
			"bufferView":30,
			"componentType":5126,
			"count":66,
			"type":"VEC2"
		},
		{
			"bufferView":31,
			"componentType":5123,
			"count":192,
			"type":"SCALAR"
		},
		{
			"bufferView":32,
			"componentType":5126,
			"count":32,
			"max":[
				0.57851243019104,
				-0.24145948886871338,
				-4.542937278747559
			],
			"min":[
				0.5597330331802368,
				-0.26898038387298584,
				-4.612118721008301
			],
			"type":"VEC3"
		},
		{
			"bufferView":33,
			"componentType":5126,
			"count":32,
			"type":"VEC3"
		},
		{
			"bufferView":34,
			"componentType":5126,
			"count":32,
			"type":"VEC2"
		},
		{
			"bufferView":35,
			"componentType":5123,
			"count":90,
			"type":"SCALAR"
		}
	],
	"bufferViews":[
		{
			"buffer":0,
			"byteLength":6888,
			"byteOffset":0,
			"target":34962
		},
		{
			"buffer":0,
			"byteLength":6888,
			"byteOffset":6888,
			"target":34962
		},
		{
			"buffer":0,
			"byteLength":4592,
			"byteOffset":13776,
			"target":34962
		},
		{
			"buffer":0,
			"byteLength":5760,
			"byteOffset":18368,
			"target":34963
		},
		{
			"buffer":0,
			"byteLength":13416,
			"byteOffset":24128,
			"target":34962
		},
		{
			"buffer":0,
			"byteLength":13416,
			"byteOffset":37544,
			"target":34962
		},
		{
			"buffer":0,
			"byteLength":8944,
			"byteOffset":50960,
			"target":34962
		},
		{
			"buffer":0,
			"byteLength":11520,
			"byteOffset":59904,
			"target":34963
		},
		{
			"buffer":0,
			"byteLength":2556,
			"byteOffset":71424,
			"target":34962
		},
		{
			"buffer":0,
			"byteLength":2556,
			"byteOffset":73980,
			"target":34962
		},
		{
			"buffer":0,
			"byteLength":1704,
			"byteOffset":76536,
			"target":34962
		},
		{
			"buffer":0,
			"byteLength":1428,
			"byteOffset":78240,
			"target":34963
		},
		{
			"buffer":0,
			"byteLength":1452,
			"byteOffset":79668,
			"target":34962
		},
		{
			"buffer":0,
			"byteLength":1452,
			"byteOffset":81120,
			"target":34962
		},
		{
			"buffer":0,
			"byteLength":968,
			"byteOffset":82572,
			"target":34962
		},
		{
			"buffer":0,
			"byteLength":648,
			"byteOffset":83540,
			"target":34963
		},
		{
			"buffer":0,
			"byteLength":41352,
			"byteOffset":84188,
			"target":34962
		},
		{
			"buffer":0,
			"byteLength":41352,
			"byteOffset":125540,
			"target":34962
		},
		{
			"buffer":0,
			"byteLength":27568,
			"byteOffset":166892,
			"target":34962
		},
		{
			"buffer":0,
			"byteLength":37752,
			"byteOffset":194460,
			"target":34963
		},
		{
			"buffer":0,
			"byteLength":130152,
			"byteOffset":232212,
			"target":34962
		},
		{
			"buffer":0,
			"byteLength":130152,
			"byteOffset":362364,
			"target":34962
		},
		{
			"buffer":0,
			"byteLength":86768,
			"byteOffset":492516,
			"target":34962
		},
		{
			"buffer":0,
			"byteLength":68088,
			"byteOffset":579284,
			"target":34963
		},
		{
			"buffer":0,
			"byteLength":1176,
			"byteOffset":647372,
			"target":34962
		},
		{
			"buffer":0,
			"byteLength":1176,
			"byteOffset":648548,
			"target":34962
		},
		{
			"buffer":0,
			"byteLength":784,
			"byteOffset":649724,
			"target":34962
		},
		{
			"buffer":0,
			"byteLength":564,
			"byteOffset":650508,
			"target":34963
		},
		{
			"buffer":0,
			"byteLength":792,
			"byteOffset":651072,
			"target":34962
		},
		{
			"buffer":0,
			"byteLength":792,
			"byteOffset":651864,
			"target":34962
		},
		{
			"buffer":0,
			"byteLength":528,
			"byteOffset":652656,
			"target":34962
		},
		{
			"buffer":0,
			"byteLength":384,
			"byteOffset":653184,
			"target":34963
		},
		{
			"buffer":0,
			"byteLength":384,
			"byteOffset":653568,
			"target":34962
		},
		{
			"buffer":0,
			"byteLength":384,
			"byteOffset":653952,
			"target":34962
		},
		{
			"buffer":0,
			"byteLength":256,
			"byteOffset":654336,
			"target":34962
		},
		{
			"buffer":0,
			"byteLength":180,
			"byteOffset":654592,
			"target":34963
		}
	],
	"buffers":[
		{
			"byteLength":654772,
			"uri":"CRESCENDUCK.bin"
		}
	]
}
