{
	"asset":{
		"generator":"Khronos glTF Blender I/O v5.0.21",
		"version":"2.0"
	},
	"extensionsUsed":[
		"KHR_materials_emissive_strength"
	],
	"scene":0,
	"scenes":[
		{
			"name":"Scene",
			"nodes":[
				0
			]
		}
	],
	"nodes":[
		{
			"mesh":0,
			"name":"Crescenduck.002"
		}
	],
	"materials":[
		{
			"doubleSided":true,
			"name":"Material.004",
			"pbrMetallicRoughness":{
				"baseColorFactor":[
					0,
					0,
					0,
					1
				],
				"roughnessFactor":0
			}
		},
		{
			"doubleSided":true,
			"name":"Material.003",
			"pbrMetallicRoughness":{
				"baseColorFactor":[
					1,
					0.24574045836925507,
					0,
					1
				],
				"metallicFactor":0
			}
		},
		{
			"doubleSided":true,
			"name":"Material.002",
			"pbrMetallicRoughness":{
				"baseColorFactor":[
					0,
					0,
					0,
					1
				],
				"metallicFactor":0
			}
		},
		{
			"doubleSided":true,
			"name":"Material.001",
			"pbrMetallicRoughness":{
				"baseColorFactor":[
					0.8000074625015259,
					0.6010868549346924,
					0,
					1
				],
				"metallicFactor":0,
				"roughnessFactor":0.33276450634002686
			}
		},
		{
			"doubleSided":true,
			"name":"Material.006",
			"pbrMetallicRoughness":{
				"baseColorFactor":[
					1,
					0.7379195690155029,
					0,
					1
				],
				"roughnessFactor":0.4261234998703003
			}
		},
		{
			"doubleSided":true,
			"name":"Material.009",
			"pbrMetallicRoughness":{
				"baseColorFactor":[
					0.8000074625015259,
					0.15231525897979736,
					0,
					1
				],
				"metallicFactor":0,
				"roughnessFactor":0.5
			}
		},
		{
			"doubleSided":true,
			"emissiveFactor":[
				1,
				0.08022928237915039,
				0
			],
			"extensions":{
				"KHR_materials_emissive_strength":{
					"emissiveStrength":3.799999713897705
				}
			},
			"name":"Material.010",
			"pbrMetallicRoughness":{
				"baseColorFactor":[
					0,
					0,
					0,
					1
				]
			}
		}
	],
	"meshes":[
		{
			"name":"Sphere.007",
			"primitives":[
				{
					"attributes":{
						"POSITION":0,
						"NORMAL":1,
						"TEXCOORD_0":2
					},
					"indices":3,
					"material":0
				},
				{
					"attributes":{
						"POSITION":4,
						"NORMAL":5,
						"TEXCOORD_0":6
					},
					"indices":7,
					"material":1
				},
				{
					"attributes":{
						"POSITION":8,
						"NORMAL":9,
						"TEXCOORD_0":10
					},
					"indices":11,
					"material":2
				},
				{
					"attributes":{
						"POSITION":12,
						"NORMAL":13,
						"TEXCOORD_0":14
					},
					"indices":15,
					"material":3
				},
				{
					"attributes":{
						"POSITION":16,
						"NORMAL":17,
						"TEXCOORD_0":18
					},
					"indices":19,
					"material":4
				},
				{
					"attributes":{
						"POSITION":20,
						"NORMAL":21,
						"TEXCOORD_0":22
					},
					"indices":23
				},
				{
					"attributes":{
						"POSITION":24,
						"NORMAL":25,
						"TEXCOORD_0":26
					},
					"indices":27,
					"material":5
				},
				{
					"attributes":{
						"POSITION":28,
						"NORMAL":29,
						"TEXCOORD_0":30
					},
					"indices":31,
					"material":6
				}
			]
		}
	],
	"accessors":[
		{
			"bufferView":0,
			"componentType":5126,
			"count":1118,
			"max":[
				1.588261604309082,
				0.9755977392196655,
				4.417152404785156
			],
			"min":[
				1.024815559387207,
				-0.8264996409416199,
				3.8537063598632812
			],
			"type":"VEC3"
		},
		{
			"bufferView":1,
			"componentType":5126,
			"count":1118,
			"type":"VEC3"
		},
		{
			"bufferView":2,
			"componentType":5126,
			"count":1118,
			"type":"VEC2"
		},
		{
			"bufferView":3,
			"componentType":5123,
			"count":5760,
			"type":"SCALAR"
		},
		{
			"bufferView":4,
			"componentType":5126,
			"count":213,
			"max":[
				2.418412923812866,
				0.5340801477432251,
				3.9314637184143066
			],
			"min":[
				1.168346881866455,
				-0.42511725425720215,
				3.4107542037963867
			],
			"type":"VEC3"
		},
		{
			"bufferView":5,
			"componentType":5126,
			"count":213,
			"type":"VEC3"
		},
		{
			"bufferView":6,
			"componentType":5126,
			"count":213,
			"type":"VEC2"
		},
		{
			"bufferView":7,
			"componentType":5123,
			"count":714,
			"type":"SCALAR"
		},
		{
			"bufferView":8,
			"componentType":5126,
			"count":145,
			"max":[
				2.456223726272583,
				4.638472080230713,
				3.7361979484558105
			],
			"min":[
				-0.8219361901283264,
				-4.325479507446289,
				-8.023860931396484
			],
			"type":"VEC3"
		},
		{
			"bufferView":9,
			"componentType":5126,
			"count":145,
			"type":"VEC3"
		},
		{
			"bufferView":10,
			"componentType":5126,
			"count":145,
			"type":"VEC2"
		},
		{
			"bufferView":11,
			"componentType":5123,
			"count":324,
			"type":"SCALAR"
		},
		{
			"bufferView":12,
			"componentType":5126,
			"count":3719,
			"max":[
				2.3583364486694336,
				6.751027584075928,
				6.7039103507995605
			],
			"min":[
				-6.055513858795166,
				-6.977035999298096,
				-7.286848068237305
			],
			"type":"VEC3"
		},
		{
			"bufferView":13,
			"componentType":5126,
			"count":3719,
			"type":"VEC3"
		},
		{
			"bufferView":14,
			"componentType":5126,
			"count":3719,
			"type":"VEC2"
		},
		{
			"bufferView":15,
			"componentType":5123,
			"count":18876,
			"type":"SCALAR"
		},
		{
			"bufferView":16,
			"componentType":5126,
			"count":11648,
			"max":[
				2.039119243621826,
				2.158487558364868,
				1.7808177471160889
			],
			"min":[
				-1.6028578281402588,
				-1.8297109603881836,
				-0.28583014011383057
			],
			"type":"VEC3"
		},
		{
			"bufferView":17,
			"componentType":5126,
			"count":11648,
			"type":"VEC3"
		},
		{
			"bufferView":18,
			"componentType":5126,
			"count":11648,
			"type":"VEC2"
		},
		{
			"bufferView":19,
			"componentType":5123,
			"count":34044,
			"type":"SCALAR"
		},
		{
			"bufferView":20,
			"componentType":5126,
			"count":98,
			"max":[
				2.403724431991577,
				0.9016674757003784,
				3.8477067947387695
			],
			"min":[
				1.8248000144958496,
				0.339402973651886,
				3.6046104431152344
			],
			"type":"VEC3"
		},
		{
			"bufferView":21,
			"componentType":5126,
			"count":98,
			"type":"VEC3"
		},
		{
			"bufferView":22,
			"componentType":5126,
			"count":98,
			"type":"VEC2"
		},
		{
			"bufferView":23,
			"componentType":5123,
			"count":282,
			"type":"SCALAR"
		},
		{
			"bufferView":24,
			"componentType":5126,
			"count":66,
			"max":[
				2.0359456539154053,
				0.5467604398727417,
				3.728017807006836
			],
			"min":[
				1.8248000144958496,
				0.339402973651886,
				3.6046104431152344
			],
			"type":"VEC3"
		},
		{
			"bufferView":25,
			"componentType":5126,
			"count":66,
			"type":"VEC3"
		},
		{
			"bufferView":26,
			"componentType":5126,
			"count":66,
			"type":"VEC2"
		},
		{
			"bufferView":27,
			"componentType":5123,
			"count":192,
			"type":"SCALAR"
		},
		{
			"bufferView":28,
			"componentType":5126,
			"count":32,
			"max":[
				2.403724431991577,
				0.9016674757003784,
				3.8477067947387695
			],
			"min":[
				2.3510351181030273,
				0.8472206592559814,
				3.7758665084838867
			],
			"type":"VEC3"
		},
		{
			"bufferView":29,
			"componentType":5126,
			"count":32,
			"type":"VEC3"
		},
		{
			"bufferView":30,
			"componentType":5126,
			"count":32,
			"type":"VEC2"
		},
		{
			"bufferView":31,
			"componentType":5123,
			"count":90,
			"type":"SCALAR"
		}
	],
	"bufferViews":[
		{
			"buffer":0,
			"byteLength":13416,
			"byteOffset":0,
			"target":34962
		},
		{
			"buffer":0,
			"byteLength":13416,
			"byteOffset":13416,
			"target":34962
		},
		{
			"buffer":0,
			"byteLength":8944,
			"byteOffset":26832,
			"target":34962
		},
		{
			"buffer":0,
			"byteLength":11520,
			"byteOffset":35776,
			"target":34963
		},
		{
			"buffer":0,
			"byteLength":2556,
			"byteOffset":47296,
			"target":34962
		},
		{
			"buffer":0,
			"byteLength":2556,
			"byteOffset":49852,
			"target":34962
		},
		{
			"buffer":0,
			"byteLength":1704,
			"byteOffset":52408,
			"target":34962
		},
		{
			"buffer":0,
			"byteLength":1428,
			"byteOffset":54112,
			"target":34963
		},
		{
			"buffer":0,
			"byteLength":1740,
			"byteOffset":55540,
			"target":34962
		},
		{
			"buffer":0,
			"byteLength":1740,
			"byteOffset":57280,
			"target":34962
		},
		{
			"buffer":0,
			"byteLength":1160,
			"byteOffset":59020,
			"target":34962
		},
		{
			"buffer":0,
			"byteLength":648,
			"byteOffset":60180,
			"target":34963
		},
		{
			"buffer":0,
			"byteLength":44628,
			"byteOffset":60828,
			"target":34962
		},
		{
			"buffer":0,
			"byteLength":44628,
			"byteOffset":105456,
			"target":34962
		},
		{
			"buffer":0,
			"byteLength":29752,
			"byteOffset":150084,
			"target":34962
		},
		{
			"buffer":0,
			"byteLength":37752,
			"byteOffset":179836,
			"target":34963
		},
		{
			"buffer":0,
			"byteLength":139776,
			"byteOffset":217588,
			"target":34962
		},
		{
			"buffer":0,
			"byteLength":139776,
			"byteOffset":357364,
			"target":34962
		},
		{
			"buffer":0,
			"byteLength":93184,
			"byteOffset":497140,
			"target":34962
		},
		{
			"buffer":0,
			"byteLength":68088,
			"byteOffset":590324,
			"target":34963
		},
		{
			"buffer":0,
			"byteLength":1176,
			"byteOffset":658412,
			"target":34962
		},
		{
			"buffer":0,
			"byteLength":1176,
			"byteOffset":659588,
			"target":34962
		},
		{
			"buffer":0,
			"byteLength":784,
			"byteOffset":660764,
			"target":34962
		},
		{
			"buffer":0,
			"byteLength":564,
			"byteOffset":661548,
			"target":34963
		},
		{
			"buffer":0,
			"byteLength":792,
			"byteOffset":662112,
			"target":34962
		},
		{
			"buffer":0,
			"byteLength":792,
			"byteOffset":662904,
			"target":34962
		},
		{
			"buffer":0,
			"byteLength":528,
			"byteOffset":663696,
			"target":34962
		},
		{
			"buffer":0,
			"byteLength":384,
			"byteOffset":664224,
			"target":34963
		},
		{
			"buffer":0,
			"byteLength":384,
			"byteOffset":664608,
			"target":34962
		},
		{
			"buffer":0,
			"byteLength":384,
			"byteOffset":664992,
			"target":34962
		},
		{
			"buffer":0,
			"byteLength":256,
			"byteOffset":665376,
			"target":34962
		},
		{
			"buffer":0,
			"byteLength":180,
			"byteOffset":665632,
			"target":34963
		}
	],
	"buffers":[
		{
			"byteLength":665812,
			"uri":"CRESCENDUCK.bin"
		}
	]
}
